<?xml version="1.0" encoding="UTF-8"?>
<svg id="Layer_1" data-name="Layer 1" xmlns="http://www.w3.org/2000/svg" viewBox="0 0 160 91.07">
  <defs>
    <style>
      .cls-1 {
        fill: #fff;
        stroke-width: 0px;
      }
    </style>
  </defs>
  <polygon class="cls-1" points="0 45.57 158.01 45.57 158.01 47.14 0 47.14 0 45.57"/>
  <polygon class="cls-1" points="0 70.72 158.01 70.72 158.01 72.3 0 72.3 0 70.72"/>
  <path class="cls-1" d="m5.54,35.14c-3.24-2.89-4.78-7.9-4.78-11.66,0-4.49,1.43-8.57,4.49-11.83,2.51-2.68,6.12-4.72,11.54-4.72,3.99,0,7.26,1.02,8.8,1.84.61.29.82.26.93-.03l.35-1.11c.09-.26.17-.26.82-.26s.76.09.76.7c0,.85.79,8.28.99,9.56.06.29,0,.52-.23.58l-.93.23c-.23.09-.38-.09-.52-.5-.5-1.75-1.66-3.96-3.5-5.86-1.87-1.84-4.2-3.29-7.52-3.29-6.38,0-9.09,5.83-9.04,12.3,0,2.74.79,8.13,3.88,11.43,2.86,2.94,5.33,3.26,6.82,3.26,4.98,0,8.69-2.27,10.32-4.66.23-.35.44-.52.64-.35l.76.64c.12.09.17.26,0,.52-2.54,3.67-6.76,7.23-12.94,7.23-5.8,0-8.86-1.57-11.63-4.02h0Z"/>
  <path class="cls-1" d="m37.54,35.14c-3.24-2.89-4.75-7.93-4.75-11.66,0-4.49,1.43-8.57,4.49-11.83,2.48-2.68,6.12-4.72,11.54-4.72,3.96,0,7.26,1.02,8.77,1.84.61.29.85.26.9-.03l.38-1.14c.09-.26.17-.26.85-.26s.76.09.76.7c0,.85.79,8.28.99,9.56.03.29,0,.52-.23.58l-.96.26c-.23.09-.41-.09-.52-.5-.47-1.75-1.66-3.96-3.5-5.86-1.87-1.84-4.2-3.29-7.52-3.29-6.38,0-9.09,5.83-9.06,12.3,0,2.74.79,8.13,3.91,11.43,2.86,2.94,5.33,3.26,6.82,3.26,4.98,0,8.72-2.27,10.32-4.66.23-.35.44-.52.64-.35l.76.64c.12.09.17.26,0,.52-2.54,3.67-6.76,7.23-12.94,7.23-5.8,0-8.86-1.57-11.63-4.02h0Z"/>
  <path class="cls-1" d="m68.03,28.84c.17,0,.32.06.32.35.09,1.37.7,3.24,1.75,4.93,1.28,2.01,3.41,2.97,5.51,2.97s5.48-1.4,5.48-4.87c0-3.64-.7-4.66-6.38-6.82-1.31-.5-4.11-1.87-6.35-3.82-1.52-1.37-2.19-3.67-2.19-6.21s.64-4.46,3.26-6.44c1.98-1.49,3.61-2.1,6.3-2.1,3.21,0,4.9.52,5.83.87.44.17.73.09,1.02-.23l.58-.58c.17-.17.41-.26.64-.26.29,0,.41.47.44.73l.7,7.49c0,.17-.09.23-.23.26l-.96.29c-.23.09-.44,0-.58-.29-.47-1.25-1.22-2.97-2.71-4.55-1.11-1.22-2.39-1.84-4.37-1.84-3.26,0-4.63,2.86-4.63,3.96,0,1.6.03,2.91,1.14,4.02,1.14,1.17,3.64,2.22,5.77,2.86,2.1.61,3.79,1.69,5.6,3.32,1.72,1.52,2.42,3.44,2.42,6.5,0,5.33-3.82,9.68-9.59,9.68-3.93,0-6-.64-7.84-1.89-.52-.35-.79-.5-.99-.5-.26,0-.44.32-.7.76-.26.47-.47.52-.79.52-.47,0-.64-.23-.61-.7l.7-8.31c.03-.32.17-.32.35-.32l1.14.2h0Z"/>
  <path class="cls-1" d="m93.88,18.43c0-1.14-.15-7.35-.23-8.02-.15-1.05-.7-1.22-1.46-1.22h-2.19c-.23,0-.35-.03-.35-.29v-1.28c0-.17.15-.23.29-.23.58,0,2.51.15,6.88.15,1.14,0,5.51-.15,6.53-.15,5.95,0,10.67.52,14.84,3.99,2.89,2.39,4.9,6.03,4.9,11.11s-1.46,8.37-4.34,11.48c-4.23,4.61-11.72,4.63-14.46,4.63-.7,0-5.86-.12-8.28-.12-3.82,0-5.57.12-6.18.12-.23,0-.29-.09-.29-.41v-1.14c0-.17.15-.26.35-.26h2.27c.85,0,1.31-.35,1.4-1.05.15-.93.29-10.76.29-14.08l.03-3.24h0Zm6.56,4.26c0,.55.03,8.02.09,10.73,0,.87.17,1.57.73,2.39.52.79,2.01,1.05,3.5,1.05,2.54,0,5.89-1.25,8.16-4.28,1.75-2.3,3.09-5.89,3.09-9.97,0-3.59-1.49-7.26-3.53-9.53-2.33-2.59-6.15-3.99-8.72-3.99-1.22,0-1.89.03-2.45.35-.64.29-.85,1.02-.87,1.89-.03,1.84-.03,7.55-.03,8.25l.03,3.12h0Z"/>
  <path class="cls-1" d="m11.66,62.39c.06.06.06.09.03.17-.96,1.4-2.54,2.74-4.87,2.74-2.1,0-3.26-.61-4.26-1.52-1.2-1.08-1.75-2.97-1.75-4.4,0-1.6.52-3.12,1.66-4.37.87-.93,2.27-1.72,4.23-1.72,1.49,0,2.71.47,3.29.79.23.12.29.12.32,0l.15-.44c.03-.09.06-.09.26-.09s.23.03.23.26c0,.29.32,2.89.38,3.38.03.09,0,.15-.06.17l-.32.09c-.09.03-.15-.03-.17-.17-.2-.58-.58-1.4-1.28-2.13-.73-.7-1.57-1.2-2.83-1.2-2.59,0-3.67,2.36-3.67,4.69,0,1.02.29,2.94,1.49,4.23,1.08,1.14,2.01,1.28,2.8,1.28,1.78,0,3.21-.9,3.91-1.89.09-.12.15-.17.2-.12l.26.23h0Z"/>
  <path class="cls-1" d="m24.69,61.69s.03.06.03.17c-.06.09-.73,2.8-.82,3.24-.41-.03-5.1-.06-6.76-.06-1.46,0-2.04.06-2.24.06-.15,0-.15-.03-.15-.15v-.38c0-.09,0-.12.09-.12h.64c.58,0,.67-.23.67-.44,0-.29.06-4.37.06-5.33v-.9c0-1.05-.03-2.77-.06-3.03-.03-.44-.09-.58-.52-.58h-.67c-.09,0-.15-.09-.15-.15v-.38c0-.09.03-.12.15-.12.17,0,.76.06,2.24.06,1.75,0,2.45-.06,2.57-.06s.17.06.17.15v.38c0,.06-.03.12-.17.12h-.87c-.5,0-.55.17-.55.61,0,.23-.06,2.68-.06,3.82v1.4c0,.29,0,3.82.06,4.52h.9c.9,0,2.1,0,2.74-.09.9-.12,1.95-2.1,2.19-2.71.06-.06.09-.09.2-.06l.32.03h0Z"/>
  <path class="cls-1" d="m30.26,60.55c-.12.38-.93,2.71-1.02,3.15-.03.12-.03.26-.03.35,0,.2.26.38.58.38h.67c.12,0,.17.03.17.09v.41c0,.09-.03.17-.12.17-.23,0-.9-.06-2.04-.06-1.2,0-1.57.06-1.81.06-.09,0-.09-.09-.09-.2v-.32c0-.09.03-.12.09-.12h.5c.47,0,.76-.23,1.05-.73.17-.29,1.34-3.24,1.84-4.61.12-.32,1.43-3.85,1.6-4.26.03-.17.12-.47.03-.55-.06-.06-.09-.15-.09-.2s.03-.12.17-.17c.52-.12,1.43-.61,1.6-.82.09-.09.17-.17.23-.17.09,0,.17.2.2.29.29,1.02,1.57,4.66,1.87,5.71.38,1.28,1.43,4.31,1.66,4.75.29.55.73.76,1.05.76h.52c.09,0,.12.03.12.12v.35c0,.09-.03.2-.17.2-.29,0-.61-.06-2.42-.06-1.37,0-1.92.06-2.27.06-.12,0-.17-.09-.17-.2v-.32c0-.09.03-.12.12-.12h.41c.47,0,.58-.17.5-.61-.12-.58-.79-2.68-.96-3.26l-3.79-.06h0Zm3.61-.64c-.17-.47-1.28-4.2-1.37-4.52-.06-.2-.09-.29-.17-.29s-.17.06-.2.2c-.06.2-1.52,4.23-1.66,4.61h3.41Z"/>
  <path class="cls-1" d="m44.97,60.79c0,.99.03,2.8.06,3.03.06.32.17.61.41.61h.82c.09,0,.12.06.12.12v.38c0,.12-.06.15-.17.15-.2,0-.52-.06-2.24-.06-1.6,0-1.98.06-2.16.06-.09,0-.12-.06-.12-.15v-.38c0-.09.03-.12.09-.12h.55c.35,0,.61-.09.61-.52.03-1.63.03-3.18.03-4.69v-4.28c0-.55-.23-.82-.52-.82h-.64c-.09,0-.12-.03-.12-.09v-.44c0-.09.03-.12.12-.12.12,0,.64.06,2.24.06.9,0,2.42-.06,2.89-.06,1.31,0,2.3.44,2.97,1.02.58.52.87,1.2.87,1.84,0,2.04-1.22,2.89-3.03,3.21v.06c.47.17.76.47.99.76.2.26,1.2,1.78,1.34,1.98.09.17,1.14,1.63,1.4,1.87.32.26.76.32,1.17.32.09,0,.12.06.12.12v.35c0,.12-.03.17-.12.17-.12,0-.55-.06-1.6-.06-.47,0-1.08.03-1.43.06-.2-.15-.5-.58-.73-.93-.29-.47-.93-1.63-1.08-1.89-.17-.29-.61-1.05-.87-1.4-.41-.58-.79-1.02-1.46-1.02-.06,0-.35.03-.52.03l.03.85h0Zm.03-1.49c.23.03.41.06.61.06,2.54,0,3.06-2.07,3.06-2.8s-.32-1.46-.73-1.84c-.58-.52-1.34-.7-2.16-.7-.26,0-.47.03-.58.09-.12.09-.2.26-.2.47v4.72h0Z"/>
  <path class="cls-1" d="m58.41,60.64c0,.82.03,3.21.06,3.44.03.23.17.35.38.35h.61c.06,0,.12.03.12.09v.44c0,.06-.03.12-.09.12-.2,0-.7-.06-2.1-.06s-1.92.06-2.1.06c-.06,0-.09-.03-.09-.12v-.44c0-.06.03-.09.09-.09h.58c.29,0,.41-.12.44-.32.03-.12.06-3.09.06-5.13v-.93c0-.29-.03-3.41-.03-3.56,0-.2-.09-.38-.5-.38h-.47c-.09,0-.12-.03-.12-.12v-.44c0-.06.03-.09.12-.09.2,0,.7.06,2.1.06,1.28,0,1.78-.06,2.01-.06.09,0,.12.03.12.12v.41c0,.09-.03.12-.12.12h-.52c-.32,0-.5.09-.5.47,0,.26-.06,2.8-.06,3.59v.73h.29c.2,0,.35-.06.55-.23.32-.26,3.15-3.79,3.32-4.05.23-.32.03-.52-.26-.52h-.23c-.06,0-.09-.03-.09-.12v-.38c0-.09.03-.12.09-.12.2,0,.85.06,1.92.06.64,0,1.2-.06,1.4-.06.09,0,.12.03.12.12v.41c0,.09-.06.12-.12.12h-.32c-.23,0-.58.06-.9.26-.76.5-3.06,3.18-3.67,3.96.64.82,3.96,5.13,4.46,5.68.29.35.73.38.99.38h.35c.09,0,.12.06.12.12v.41c0,.09-.03.12-.12.12-.17,0-.76-.06-2.24-.06-1.37,0-1.98.06-2.22.06-.06,0-.09-.03-.09-.12v-.41c0-.06.03-.09.09-.09h.23c.29,0,.32-.29.26-.41-.17-.32-2.8-4.11-3.06-4.37-.17-.17-.35-.23-.55-.23h-.29l-.03,1.22h0Z"/>
  <path class="cls-1" d="m85.11,62.39c.06.06.06.09.03.17-.99,1.4-2.54,2.74-4.87,2.74-2.07,0-3.26-.61-4.26-1.52-1.2-1.08-1.75-2.97-1.75-4.4,0-1.6.52-3.12,1.66-4.37.87-.93,2.27-1.72,4.23-1.72,1.49,0,2.71.47,3.29.79.23.12.29.12.32,0l.15-.44c.03-.09.06-.09.26-.09s.23.03.23.26c0,.29.32,2.89.38,3.38,0,.09,0,.15-.06.17l-.32.09c-.09.03-.15-.03-.17-.17-.2-.58-.58-1.4-1.28-2.13-.73-.7-1.57-1.2-2.83-1.2-2.59,0-3.67,2.36-3.67,4.69,0,1.02.29,2.94,1.49,4.23,1.08,1.14,2.01,1.28,2.8,1.28,1.78,0,3.21-.9,3.91-1.89.09-.12.15-.17.2-.12l.26.23h0Z"/>
  <path class="cls-1" d="m98.05,54.58c1.22.99,2.22,2.59,2.22,4.84,0,1.2-.32,2.48-1.2,3.59-1.05,1.31-2.45,2.3-4.9,2.3-.99,0-2.39-.29-3.67-1.08-1.17-.7-2.39-2.48-2.39-4.84,0-.99.29-2.54,1.49-4.05,1.43-1.75,3.21-2.1,4.61-2.1,1.2.03,2.51.26,3.85,1.34h0Zm-6.27.32c-.99.96-1.46,2.65-1.46,3.93,0,4.23,2.59,5.74,3.96,5.74,3.29,0,3.82-3.64,3.82-5.01,0-3.56-2.42-5.57-3.96-5.57-.29-.03-1.25-.17-2.36.9h0Z"/>
  <path class="cls-1" d="m104.84,54.93c0-.55-.15-.82-.55-.82h-.76c-.09,0-.15-.03-.15-.15v-.38c0-.09.03-.12.17-.12.17,0,.93.06,2.51.06,1.37,0,2.16-.06,2.33-.06.09,0,.15.03.15.12v.41c0,.09-.03.12-.15.12h-.7c-.5,0-.79.29-.79.64-.03.2-.06,1.17-.06,2.13v2.01c0,.82.03,1.98.06,2.51.06.76.17,1.49.58,2.01.55.76,1.43,1.02,2.22,1.02s1.66-.29,2.19-.79c.61-.61.93-1.57.93-2.74v-2.94c0-1.31-.15-2.74-.17-3.12-.06-.41-.32-.73-.67-.73h-.58c-.09,0-.15-.06-.15-.12v-.41c0-.09.03-.12.15-.12.17,0,.9.06,1.98.06,1.02,0,1.52-.06,1.66-.06s.17.06.17.12v.38c0,.09,0,.15-.09.15h-.58c-.58,0-.64.47-.7.64-.03.2-.03,2.48-.03,2.68,0,.23-.03,3.06-.09,3.73-.09,1.34-.5,2.36-1.37,3.12-.7.61-1.72,1.02-2.97,1.02-.79,0-1.72-.12-2.33-.38-.93-.38-1.6-1.14-1.92-2.19-.23-.73-.29-1.78-.29-3.93v-3.88h0Z"/>
  <path class="cls-1" d="m120.09,57.67c0,2.77.15,5.04.17,5.57.03.82.23,1.2.82,1.2h.44c.15,0,.15.06.15.15v.38c0,.09,0,.12-.15.12-.17,0-1.14-.06-1.75-.06-.44,0-1.54.06-1.69.06-.06,0-.09-.03-.09-.15v-.41s.03-.09.09-.09h.55c.44,0,.64-.35.73-1.34,0-.29.12-2.57.12-5.19v-2.07c0-.99-.55-1.72-1.28-1.72h-.52c-.06-.03-.09-.06-.09-.12v-.44c0-.06.03-.09.09-.09.09,0,.2.03.5.03.29.03.73.03,1.46.03.29,0,.52-.03.73-.03s.35-.03.47-.03c.2,0,.29.06.38.15.17.17,3.35,4.17,3.67,4.63.23.26,2.77,3.41,3.03,3.76h.06v-1.69c0-1.43,0-2.24-.03-3.06-.03-.61-.09-2.22-.17-2.51-.12-.38-.47-.61-.87-.61h-.52c-.09,0-.09-.06-.09-.15v-.38c0-.09,0-.12.15-.12.2,0,.73.06,1.84.06.99,0,1.37-.06,1.57-.06.15,0,.17.06.17.12v.38c0,.09-.03.17-.09.17h-.47c-.32,0-.5.26-.52.87-.09,1.11-.23,3.85-.23,5.51v4.31c0,.23,0,.47-.2.47-.23,0-.44-.12-.55-.26-.15-.17-1.02-1.17-2.01-2.39-1.14-1.4-2.42-2.94-2.62-3.18-.23-.23-2.83-3.5-3.03-3.73h-.17v1.89h0Z"/>
  <path class="cls-1" d="m137.17,54.2h-.47c-.52,0-1.69,0-2.39.23-.52.23-1.14,1.31-1.46,1.87-.06.09-.09.15-.17.12l-.32-.12c-.06-.03-.09-.09-.06-.17.17-.61.73-2.77.79-3,.03-.23.15-.29.2-.29.09,0,.17.06.26.17.32.32.64.41,1.11.41.87.03,1.57.09,3.15.09h.87c1.78,0,2.48-.06,3.24-.09.32-.03.93-.23,1.17-.41.15-.09.2-.17.29-.17s.15.06.17.26c.03.29.35,2.3.5,3.09.03.09,0,.12-.06.15l-.32.12c-.06.03-.09-.03-.15-.12-.23-.47-.85-1.49-1.28-1.84-.47-.26-1.92-.29-2.51-.29h-.47v8.69c0,1.22.17,1.57.55,1.57h.93c.06,0,.09.06.09.15v.35c0,.09-.03.17-.17.17-.17,0-.7-.06-2.45-.06s-2.33.06-2.56.06c-.09,0-.15-.03-.15-.15v-.38c0-.09.06-.12.12-.12h.93c.32,0,.52-.2.52-.44.06-.41.06-5.42.06-5.74l.03-4.11h0Z"/>
  <path class="cls-1" d="m153.32,62.01c0,.61.03,1.69.06,1.87.06.52.32.55.64.55h.52c.09,0,.12.06.12.12v.38c0,.12-.03.17-.12.17-.17,0-.82-.06-2.3-.06-1.6,0-2.13.06-2.27.06-.09,0-.12-.06-.12-.15v-.38c0-.06.03-.12.12-.12h.67c.44,0,.55-.17.58-.41.03-.23.06-1.49.06-3.03v-.79c-.26-.5-2.91-5.19-3.35-5.74-.2-.23-.55-.35-.82-.35h-.29c-.09,0-.15-.03-.15-.12v-.44c0-.06.03-.09.15-.09.15,0,.9.06,2.16.06,1.66,0,2.24-.06,2.42-.06.09,0,.15.03.15.12v.38c0,.09-.03.17-.15.17h-.44c-.35,0-.5.12-.47.47.03.29,1.98,3.91,2.42,4.84.55-.9,2.65-4.31,2.68-4.72.03-.29-.06-.58-.55-.58h-.44c-.09,0-.15-.06-.15-.12v-.41c0-.09.03-.12.09-.12.17,0,.85.06,1.98.06,1.05,0,1.4-.06,1.57-.06.09,0,.15.03.15.12v.38c0,.09-.03.17-.15.17h-.35c-.23,0-.61.09-.87.38s-2.97,4.46-3.59,5.54l.03,1.89h0Z"/>
  <path class="cls-1" d="m1.57,87.13c.06,0,.09.03.09.15.03.52.17,1.14.61,1.87.5.79,1.34,1.17,2.16,1.17.87,0,2.13-.55,2.13-1.89,0-1.49-.7-1.98-2.42-2.62-.52-.2-1.6-.64-2.39-1.37-.55-.52-.82-1.34-.82-2.33,0-.9.35-1.66,1.14-2.27.64-.55,1.37-.79,2.3-.79,1.08,0,1.72.26,2.04.38.17.06.26.03.35-.06l.2-.2c.06-.06.15-.09.23-.09s.15.09.15.26c0,.26.26,2.54.26,2.71,0,.06-.03.09-.09.12l-.26.09c-.06.03-.15,0-.17-.09-.17-.47-.44-1.11-1.02-1.72-.44-.47-.93-.7-1.69-.7-1.31,0-1.84,1.05-1.84,1.63s.06,1.05.47,1.46c.41.44,1.34.82,1.98,1.02.93.29,1.72.61,2.36,1.28.52.55.82,1.22.82,2.33,0,1.98-1.31,3.61-3.47,3.61-1.34,0-2.13-.29-2.77-.79-.2-.15-.29-.2-.38-.2s-.17.15-.26.29c-.09.17-.17.2-.29.2s-.2-.09-.2-.26c.03-.2.26-2.83.29-3.03.03-.09.03-.15.09-.15h.41Z"/>
  <path class="cls-1" d="m20.64,88.13c.06.06.06.09.03.17-.96,1.4-2.54,2.74-4.87,2.74-2.1,0-3.26-.61-4.26-1.52-1.2-1.08-1.75-2.97-1.75-4.4,0-1.6.52-3.12,1.66-4.37.87-.93,2.27-1.72,4.23-1.72,1.49,0,2.71.47,3.29.79.23.15.29.15.32,0l.12-.44c.03-.09.06-.09.26-.09s.23.03.23.26c0,.29.32,2.91.38,3.38.03.09,0,.15-.06.17l-.32.09c-.09.03-.12-.03-.17-.17-.2-.58-.58-1.4-1.28-2.13-.73-.7-1.57-1.2-2.83-1.2-2.62,0-3.67,2.33-3.67,4.69,0,1.02.29,2.94,1.49,4.23,1.08,1.14,2.01,1.28,2.8,1.28,1.81,0,3.21-.9,3.91-1.89.09-.12.15-.17.2-.12l.29.23h0Z"/>
  <path class="cls-1" d="m25.42,85.09c-.17,0-.23.06-.23.2v.7c0,.58.03,2.48.06,3.61.03.38.2.55.55.55h.58c.12,0,.17.03.17.12v.38c0,.09-.03.17-.17.17-.29,0-.85-.06-2.19-.06-1.6,0-2.1.06-2.42.06-.12,0-.17-.06-.17-.15v-.38c0-.09.03-.15.17-.15h.85c.38,0,.47-.38.47-.76,0-.79.03-2.62.03-3.67v-2.07c0-.5-.03-2.51-.03-2.77,0-.82-.09-1.05-.61-1.05h-.73c-.12,0-.17-.06-.17-.15v-.35c0-.06.03-.17.17-.17.29,0,.82.06,2.42.06,1.46,0,2.04-.06,2.36-.06.12,0,.17.06.17.15v.35c0,.09-.03.17-.17.17h-.58c-.58,0-.64.26-.67.9-.03.23-.09,2.39-.09,2.8v.64c0,.17.06.23.2.23h5.36c.26,0,.32-.06.32-.23v-.5c0-.58-.06-2.86-.09-3.06-.03-.52-.09-.82-.44-.82h-.76c-.12,0-.12-.06-.12-.15v-.38c0-.09.03-.15.12-.15.29,0,1.02.06,2.3.06s1.89-.06,2.16-.06c.17,0,.2.06.2.15v.35c0,.09-.03.17-.2.17h-.58c-.5,0-.52.26-.52.85,0,.23-.03,2.45-.03,2.97v1.75c0,.73.03,3.03.03,3.96,0,.58.17.82.64.82h.64c.09,0,.12.06.12.12v.38c0,.09-.03.17-.17.17-.26,0-.82-.06-2.22-.06-1.52,0-2.04.06-2.51.06-.09,0-.12-.09-.12-.15v-.38c0-.09.03-.15.12-.15h.87c.38,0,.41-.29.41-.73.03-.79.06-3.38.06-3.67v-.47c0-.15-.12-.2-.35-.2h-5.22Z"/>
  <path class="cls-1" d="m46,80.28c1.22.99,2.22,2.62,2.22,4.81,0,1.2-.32,2.48-1.2,3.59-1.05,1.31-2.45,2.3-4.9,2.3-.99,0-2.39-.29-3.67-1.08-1.17-.7-2.39-2.48-2.39-4.81,0-.99.26-2.54,1.49-4.05,1.43-1.75,3.21-2.1,4.61-2.1,1.22.06,2.51.29,3.85,1.34h0Zm-6.24.32c-.99.96-1.46,2.65-1.46,3.93,0,4.23,2.59,5.74,3.96,5.74,3.29,0,3.82-3.64,3.82-5.01,0-3.56-2.42-5.57-3.96-5.57-.32,0-1.25-.15-2.36.9h0Z"/>
  <path class="cls-1" d="m60.02,80.28c1.22.99,2.22,2.62,2.22,4.81,0,1.2-.32,2.48-1.2,3.59-1.05,1.31-2.45,2.3-4.9,2.3-.99,0-2.39-.29-3.67-1.08-1.17-.7-2.39-2.48-2.39-4.81,0-.99.26-2.54,1.49-4.05,1.43-1.75,3.21-2.1,4.61-2.1,1.2.06,2.51.29,3.85,1.34h0Zm-6.27.32c-.99.96-1.46,2.65-1.46,3.93,0,4.23,2.59,5.74,3.96,5.74,3.29,0,3.82-3.64,3.82-5.01,0-3.56-2.42-5.57-3.96-5.57-.29,0-1.25-.15-2.36.9h0Z"/>
  <path class="cls-1" d="m73.63,87.43s.03.06.03.17c-.06.09-.73,2.8-.82,3.24-.41,0-5.13-.06-6.79-.06-1.46,0-2.04.06-2.24.06-.12,0-.12-.03-.12-.15v-.38c0-.09,0-.15.09-.15h.64c.58,0,.7-.23.7-.44,0-.29.06-4.37.06-5.33v-.9c0-1.05-.03-2.77-.06-3.06-.03-.44-.09-.58-.52-.58h-.7c-.09,0-.12-.09-.12-.15v-.38c0-.09.03-.15.12-.15.17,0,.76.06,2.24.06,1.75,0,2.45-.06,2.57-.06s.17.06.17.15v.38c0,.06-.03.15-.17.15h-.87c-.5,0-.55.17-.55.61,0,.23-.06,2.68-.06,3.82v1.4c0,.29,0,3.82.06,4.52h.9c.9,0,2.07,0,2.74-.09.9-.15,1.95-2.1,2.19-2.71.06-.06.09-.09.2-.06l.32.09h0Z"/>
  <path class="cls-1" d="m79.57,83.29c0-.44-.06-2.74-.09-2.97-.03-.38-.26-.47-.58-.47h-.87c-.06,0-.15-.03-.15-.12v-.44c0-.06.06-.09.15-.09.47,0,1.31.06,2.45.06.82,0,1.63-.06,2.45-.06,2.19,0,3.93.2,5.45,1.49,1.08.87,1.84,2.24,1.84,4.14s-.52,3.09-1.6,4.26c-1.6,1.72-4.14,1.75-5.25,1.75-.61,0-2.27-.06-3.09-.06-1.43,0-2.1.06-2.3.06-.06,0-.09-.03-.09-.15v-.41c0-.06.03-.09.15-.09h.93c.32,0,.5-.15.55-.41.06-.32.12-4.02.12-5.25l-.06-1.25h0Zm2.04,1.57c0,.2.03,2.97.03,3.96,0,.32.06.58.29.9.2.32.82.44,1.43.44,1.28,0,2.56-.58,3.38-1.63.7-.87,1.17-2.22,1.17-3.73,0-1.31-.55-2.71-1.31-3.56-.87-.93-2.3-1.54-3.64-1.54-.35,0-.79,0-1.05.17-.23.15-.29.38-.29.73-.03.7-.03,2.8-.03,3.06l.03,1.2h0Z"/>
  <path class="cls-1" d="m95.25,85.5c0,.17.03,3.91.03,4.08,0,.52.26.58.64.58h.7c.06,0,.15.03.15.12v.41c0,.09-.06.15-.17.15-.2,0-.85-.06-2.39-.06-1.63,0-2.33.06-2.51.06-.09,0-.15-.03-.15-.12v-.44c0-.06.03-.09.15-.09h.64c.32,0,.7-.03.76-.47.03-.23.06-3.76.06-4.63v-1.14c0-.38-.03-3.32-.06-3.53-.06-.38-.2-.55-.67-.55h-.85c-.09,0-.15-.03-.15-.12v-.47c0-.09.03-.12.09-.12.2,0,1.05.06,2.62.06s2.1-.06,2.3-.06c.09,0,.15.06.15.15v.38c0,.09-.06.15-.15.15h-.55c-.35,0-.61.15-.61.44,0,.17-.03,3.76-.03,3.93v1.28h0Z"/>
  <path class="cls-1" d="m98.99,87.13c.06,0,.09.03.09.15.03.52.17,1.14.61,1.87.5.79,1.34,1.17,2.16,1.17.87,0,2.13-.55,2.13-1.89,0-1.49-.7-1.98-2.42-2.62-.52-.2-1.6-.64-2.39-1.37-.55-.52-.82-1.34-.82-2.33,0-.9.35-1.66,1.14-2.27.64-.55,1.37-.79,2.3-.79,1.08,0,1.72.26,2.04.38.17.06.26.03.35-.06l.2-.2c.06-.06.15-.09.23-.09s.15.09.15.26c0,.26.26,2.54.26,2.71,0,.06-.03.09-.09.12l-.26.09c-.06.03-.15,0-.17-.09-.17-.47-.44-1.11-1.02-1.72-.44-.47-.93-.7-1.69-.7-1.31,0-1.84,1.05-1.84,1.63s.06,1.05.47,1.46c.44.44,1.34.82,1.98,1.02.93.29,1.72.61,2.33,1.28.52.55.82,1.22.82,2.33,0,1.98-1.31,3.61-3.47,3.61-1.34,0-2.13-.29-2.77-.79-.2-.15-.29-.2-.38-.2s-.17.15-.26.29c-.09.17-.17.2-.29.2s-.2-.09-.2-.26c.03-.2.26-2.83.29-3.03.03-.09.03-.15.09-.15h.44Z"/>
  <path class="cls-1" d="m111.08,79.91h-.47c-.52,0-1.69,0-2.39.23-.52.23-1.14,1.31-1.46,1.87-.06.09-.09.15-.17.12l-.32-.12c-.06-.03-.09-.09-.06-.17.17-.61.73-2.77.79-3,.03-.23.15-.29.2-.29.09,0,.17.06.26.17.32.32.64.41,1.11.44.87.03,1.57.09,3.18.09h.87c1.78,0,2.48-.06,3.24-.09.32,0,.93-.23,1.17-.44.15-.09.2-.17.29-.17s.15.06.17.26c.03.29.35,2.3.5,3.09.03.09-.03.15-.06.15l-.32.12c-.06.03-.09-.03-.15-.15-.23-.47-.85-1.49-1.28-1.84-.47-.26-1.92-.29-2.51-.29h-.47v8.69c0,1.22.17,1.57.55,1.57h.93c.06,0,.09.06.09.15v.35c0,.09-.03.17-.17.17-.17,0-.7-.06-2.45-.06s-2.33.06-2.56.06c-.09,0-.15-.03-.15-.15v-.38c0-.09.06-.15.12-.15h.93c.32,0,.52-.2.52-.44.06-.44.06-5.42.06-5.74v-4.05h0Z"/>
  <path class="cls-1" d="m122.36,86.49c0,.99.03,2.8.06,3.06.06.32.17.61.44.61h.82c.09,0,.15.06.15.12v.38c0,.12-.06.15-.17.15-.2,0-.55-.06-2.24-.06-1.6,0-1.98.06-2.16.06-.09,0-.15-.06-.15-.15v-.38c0-.09.03-.15.09-.15h.55c.35,0,.61-.09.61-.55.03-1.63.03-3.18.03-4.69v-4.28c0-.55-.23-.82-.52-.82h-.64c-.09,0-.12-.03-.12-.09v-.41c0-.09.03-.12.12-.12.12,0,.64.06,2.24.06.9,0,2.42-.06,2.91-.06,1.31,0,2.3.44,2.97,1.02.58.52.87,1.2.87,1.84,0,2.04-1.22,2.91-3.03,3.21v.06c.47.17.76.47.99.76.2.26,1.2,1.78,1.34,1.98.09.17,1.14,1.63,1.4,1.87.32.29.76.32,1.17.32.09,0,.15.06.15.12v.35c0,.12-.03.17-.15.17-.15,0-.55-.06-1.6-.06-.47,0-1.08.03-1.43.06-.2-.15-.5-.58-.73-.93-.29-.47-.93-1.63-1.08-1.89-.17-.29-.61-1.05-.87-1.4-.41-.58-.79-1.02-1.46-1.02-.06,0-.35.03-.52.03l-.03.85h0Zm.03-1.46c.23.03.44.06.61.06,2.54,0,3.06-2.04,3.06-2.8s-.32-1.46-.73-1.84c-.58-.52-1.34-.7-2.16-.7-.26,0-.47.03-.58.09-.15.09-.2.29-.2.47v4.72h0Z"/>
  <path class="cls-1" d="m133.96,85.5c0,.17.03,3.91.03,4.08,0,.52.26.58.64.58h.7c.06,0,.15.03.15.12v.41c0,.09-.06.15-.17.15-.2,0-.85-.06-2.39-.06-1.63,0-2.33.06-2.51.06-.09,0-.15-.03-.15-.12v-.44c0-.06.03-.09.15-.09h.64c.32,0,.7-.03.76-.47.03-.23.06-3.76.06-4.63v-1.14c0-.38-.03-3.32-.06-3.53-.06-.38-.2-.55-.67-.55h-.85c-.09,0-.15-.03-.15-.12v-.47c0-.09.03-.12.09-.12.2,0,1.05.06,2.62.06s2.1-.06,2.3-.06c.09,0,.15.06.15.15v.38c0,.09-.06.15-.15.15h-.61c-.35,0-.61.15-.61.44,0,.17-.03,3.76-.03,3.93v1.28h.06Z"/>
  <path class="cls-1" d="m147.87,88.13c.06.06.06.09.03.17-.99,1.4-2.54,2.74-4.87,2.74-2.1,0-3.26-.61-4.26-1.52-1.2-1.08-1.75-2.97-1.75-4.4,0-1.6.52-3.12,1.66-4.37.87-.93,2.27-1.72,4.23-1.72,1.49,0,2.71.47,3.29.79.23.15.29.15.32,0l.15-.44c.03-.09.06-.09.26-.09s.23.03.23.26c0,.29.32,2.91.38,3.38.03.09,0,.15-.06.17l-.32.09c-.09.03-.15-.03-.17-.17-.2-.58-.58-1.4-1.28-2.13-.73-.7-1.57-1.2-2.83-1.2-2.62,0-3.67,2.33-3.67,4.69,0,1.02.29,2.94,1.49,4.23,1.08,1.14,2.01,1.28,2.8,1.28,1.78,0,3.21-.9,3.91-1.89.09-.12.15-.17.2-.12l.26.23h0Z"/>
  <path class="cls-1" d="m153.11,79.91h-.47c-.52,0-1.69,0-2.39.23-.52.23-1.14,1.31-1.46,1.87-.06.09-.09.15-.17.12l-.32-.12c-.06-.03-.09-.09-.06-.17.17-.61.73-2.77.79-3,.03-.23.15-.29.2-.29.09,0,.17.06.26.17.32.32.64.41,1.11.44.87.03,1.57.09,3.15.09h.87c1.81,0,2.48-.06,3.24-.09.32,0,.93-.23,1.17-.44.15-.09.2-.17.29-.17s.15.06.17.26c.03.29.35,2.3.5,3.09.03.09-.03.15-.06.15l-.32.12c-.06.03-.09-.03-.15-.15-.23-.47-.82-1.49-1.28-1.84-.47-.26-1.92-.29-2.51-.29h-.47v8.69c0,1.22.17,1.57.55,1.57h.93c.06,0,.09.06.09.15v.35c0,.09-.03.17-.17.17-.17,0-.67-.06-2.45-.06-1.66,0-2.33.06-2.56.06-.09,0-.15-.03-.15-.15v-.38c0-.09.06-.15.12-.15h.93c.32,0,.52-.2.52-.44.06-.44.06-5.42.06-5.74l.03-4.05h0Z"/>
  <path class="cls-1" d="m156.84,33.36c-.09-2.68-.47-27.98-.47-27.98,0-1.75-.2-2.57-2.24-2.86-7.84-1.14-14.17-2.07-17.78-2.51-1.81-.23-5.01,2.97-5.22,4.63,0,0-.41,10.2-.58,13.61s.38,4.63,1.34,5.68,15.89,15.83,17.28,17.26c1.43,1.43,2.59,1.11,2.54-1.08l-.06-2.54,1.63-1.66-.93-1.08-2.89,2.89-15.89-15.91s.73-2.71,3.85-3.53c0,0,15.56,15.59,17.05,17.11,1.52,1.57,2.48.64,2.36-2.04h0Zm-3.32-7.87l.35,2.01-1.81-.96-1.81.96.35-2.01-1.46-1.43,2.01-.29.9-1.84.9,1.84,2.01.29-1.46,1.43h0Z"/>
</svg>